<?xml version="1.0" standalone="no"?>
<!DOCTYPE svg PUBLIC "-//W3C//DTD SVG 20010904//EN"
 "http://www.w3.org/TR/2001/REC-SVG-20010904/DTD/svg10.dtd">
<svg version="1.0" xmlns="http://www.w3.org/2000/svg"
 width="48.000000pt" height="48.000000pt" viewBox="0 0 48.000000 48.000000"
 preserveAspectRatio="xMidYMid meet">

<g transform="translate(0.000000,48.000000) scale(0.100000,-0.100000)"
fill="#000000" stroke="none">
<path d="M230 295 l0 -45 -45 0 c-25 0 -45 -4 -45 -10 0 -5 20 -10 45 -10 l45
0 0 -45 c0 -25 5 -45 10 -45 6 0 10 20 10 45 l0 45 45 0 c25 0 45 5 45 10 0 6
-20 10 -45 10 l-45 0 0 45 c0 25 -4 45 -10 45 -5 0 -10 -20 -10 -45z"/>
</g>
</svg>
